<svg xmlns:xlink="http://www.w3.org/1999/xlink" width="2.77ex" height="2.009ex" style="font-size: 15px; vertical-align: -0.671ex; margin-left: -0.089ex;" viewBox="-38.5 -576.1 1192.5 865.1" role="img" focusable="false" xmlns="http://www.w3.org/2000/svg">
<defs>
<path stroke-width="1" id="E1-MJMATHI-70" d="M23 287Q24 290 25 295T30 317T40 348T55 381T75 411T101 433T134 442Q209 442 230 378L240 387Q302 442 358 442Q423 442 460 395T497 281Q497 173 421 82T249 -10Q227 -10 210 -4Q199 1 187 11T168 28L161 36Q160 35 139 -51T118 -138Q118 -144 126 -145T163 -148H188Q194 -155 194 -157T191 -175Q188 -187 185 -190T172 -194Q170 -194 161 -194T127 -193T65 -192Q-5 -192 -24 -194H-32Q-39 -187 -39 -183Q-37 -156 -26 -148H-6Q28 -147 33 -136Q36 -130 94 103T155 350Q156 355 156 364Q156 405 131 405Q109 405 94 377T71 316T59 280Q57 278 43 278H29Q23 284 23 287ZM178 102Q200 26 252 26Q282 26 310 49T356 107Q374 141 392 215T411 325V331Q411 405 350 405Q339 405 328 402T306 393T286 380T269 365T254 350T243 336T235 326L232 322Q232 321 229 308T218 264T204 212Q178 106 178 102Z"></path>
<path stroke-width="1" id="E1-MJAMS-21BA" d="M369 543T369 563T397 583Q408 583 440 579L454 577L464 581Q492 592 516 609T552 638T565 650Q604 638 607 637Q606 636 598 628T585 614T570 601T548 584T523 568L510 560L516 558Q522 555 527 553T541 546T559 536T580 523T603 506T626 485Q722 384 722 250Q722 106 622 12T387 -83Q253 -83 155 12T56 250Q56 357 110 433T235 545Q244 550 252 550Q270 550 270 531Q270 522 261 515T238 501T202 477T159 433Q95 352 95 250Q95 131 178 45T388 -42Q511 -42 596 43T682 250Q682 340 636 408T522 511Q495 526 488 526Q488 525 488 525T487 522T485 515L490 506Q505 481 516 451T531 404T535 384L532 385Q529 386 524 387T513 390L491 397L488 408Q472 483 413 542L399 543Q369 543 369 563Z"></path>
</defs>
<g stroke="currentColor" fill="currentColor" stroke-width="0" transform="matrix(1 0 0 -1 0 0)">
 <use xlink:href="#E1-MJMATHI-70" x="0" y="0"></use>
 <use transform="scale(0.707)" xlink:href="#E1-MJAMS-21BA" x="712" y="-213"></use>
</g>
</svg>