<?xml version="1.0" encoding="UTF-8" standalone="no"?>
<!DOCTYPE svg PUBLIC "-//W3C//DTD SVG 1.1//EN" "http://www.w3.org/Graphics/SVG/1.1/DTD/svg11.dtd">
<svg width="100%" height="100%" viewBox="0 0 600 400" version="1.1" xmlns="http://www.w3.org/2000/svg" xmlns:xlink="http://www.w3.org/1999/xlink" xml:space="preserve" xmlns:serif="http://www.serif.com/" style="fill-rule:evenodd;clip-rule:evenodd;stroke-linejoin:round;">
    <rect x="0" y="0" width="600" height="400" style="fill:white;"/>
    <rect x="61.466" y="11.811" width="526.725" height="344.594" style="fill:white;"/>
    <g transform="matrix(1,0,0,1,1,10.7686)">
        <text x="357.247px" y="107.676px" style="font-family:'Helvetica-Oblique', 'Helvetica';font-style:italic;font-size:12px;">R</text>
        <text x="369.247px" y="107.676px" style="font-family:'Helvetica';font-size:12px;">= 3.0</text>
    </g>
    <g transform="matrix(1,0,0,1,1,71.7686)">
        <text x="357.247px" y="107.676px" style="font-family:'Helvetica-Oblique', 'Helvetica';font-style:italic;font-size:12px;">R</text>
        <text x="369.247px" y="107.676px" style="font-family:'Helvetica';font-size:12px;">= 2.0</text>
    </g>
    <g transform="matrix(1,0,0,1,1,144.712)">
        <text x="357.247px" y="107.676px" style="font-family:'Helvetica-Oblique', 'Helvetica';font-style:italic;font-size:12px;">R</text>
        <text x="369.247px" y="107.676px" style="font-family:'Helvetica';font-size:12px;">= 1.25</text>
    </g>
    <g transform="matrix(1,0,0,1,1,179.131)">
        <text x="357.247px" y="107.676px" style="font-family:'Helvetica-Oblique', 'Helvetica';font-style:italic;font-size:12px;">R</text>
        <text x="369.247px" y="107.676px" style="font-family:'Helvetica';font-size:12px;">= 1.0</text>
    </g>
    <g transform="matrix(1,0,0,1,1,209.876)">
        <text x="357.247px" y="107.676px" style="font-family:'Helvetica-Oblique', 'Helvetica';font-style:italic;font-size:12px;">R</text>
        <text x="369.247px" y="107.676px" style="font-family:'Helvetica';font-size:12px;">= 0.8</text>
    </g>
    <path d="M76.373,356.405L76.373,11.811" style="fill:none;fill-rule:nonzero;stroke:black;stroke-opacity:0.1;stroke-width:0.5px;"/>
    <path d="M200.6,356.405L200.6,11.811" style="fill:none;fill-rule:nonzero;stroke:black;stroke-opacity:0.1;stroke-width:0.5px;"/>
    <path d="M324.828,356.405L324.828,11.811" style="fill:none;fill-rule:nonzero;stroke:black;stroke-opacity:0.1;stroke-width:0.5px;"/>
    <path d="M449.055,356.405L449.055,11.811" style="fill:none;fill-rule:nonzero;stroke:black;stroke-opacity:0.1;stroke-width:0.5px;"/>
    <path d="M573.283,356.405L573.283,11.811" style="fill:none;fill-rule:nonzero;stroke:black;stroke-opacity:0.1;stroke-width:0.5px;"/>
    <path d="M61.466,356.405L588.19,356.405" style="fill:none;fill-rule:nonzero;stroke:black;stroke-width:1px;"/>
    <path d="M76.373,356.405L76.373,352.27" style="fill:none;fill-rule:nonzero;stroke:black;stroke-width:1px;"/>
    <path d="M200.6,356.405L200.6,352.27" style="fill:none;fill-rule:nonzero;stroke:black;stroke-width:1px;"/>
    <path d="M324.828,356.405L324.828,352.27" style="fill:none;fill-rule:nonzero;stroke:black;stroke-width:1px;"/>
    <path d="M449.055,356.405L449.055,352.27" style="fill:none;fill-rule:nonzero;stroke:black;stroke-width:1px;"/>
    <path d="M573.283,356.405L573.283,352.27" style="fill:none;fill-rule:nonzero;stroke:black;stroke-width:1px;"/>
    <g transform="matrix(1,0,0,1,76.3727,371.705)">
        <text x="-3.337px" y="0px" style="font-family:'ArialMT', 'Arial', sans-serif;font-size:12px;">0</text>
    </g>
    <g transform="matrix(1,0,0,1,200.6,371.705)">
        <text x="-3.337px" y="0px" style="font-family:'ArialMT', 'Arial', sans-serif;font-size:12px;">5</text>
    </g>
    <g transform="matrix(1,0,0,1,324.827,371.705)">
        <text x="-6.674px" y="0px" style="font-family:'ArialMT', 'Arial', sans-serif;font-size:12px;">10</text>
    </g>
    <g transform="matrix(1,0,0,1,449.055,371.705)">
        <text x="-6.674px" y="0px" style="font-family:'ArialMT', 'Arial', sans-serif;font-size:12px;">15</text>
    </g>
    <g transform="matrix(1,0,0,1,573.283,371.705)">
        <text x="-6.674px" y="0px" style="font-family:'ArialMT', 'Arial', sans-serif;font-size:12px;">20</text>
    </g>
    <g transform="matrix(1,0,0,1,324.827,392.87)">
        <g>
            <text x="-95.364px" y="0px" style="font-family:'ArialMT', 'Arial', sans-serif;font-size:16.5px;">serial passage times (T</text>
            <text x="75.195px" y="2px" style="font-family:'ArialMT', 'Arial', sans-serif;font-size:11px;">SP</text>
            <text x="89.869px" y="0px" style="font-family:'ArialMT', 'Arial', sans-serif;font-size:16.5px;">)</text>
        </g>
    </g>
    <path d="M61.466,346.652L588.19,346.652" style="fill:none;fill-rule:nonzero;stroke:black;stroke-opacity:0.1;stroke-width:0.5px;"/>
    <path d="M61.466,292.47L588.19,292.47" style="fill:none;fill-rule:nonzero;stroke:black;stroke-opacity:0.1;stroke-width:0.5px;"/>
    <path d="M61.466,238.289L588.19,238.289" style="fill:none;fill-rule:nonzero;stroke:black;stroke-opacity:0.1;stroke-width:0.5px;"/>
    <path d="M61.466,184.108L588.19,184.108" style="fill:none;fill-rule:nonzero;stroke:black;stroke-opacity:0.1;stroke-width:0.5px;"/>
    <path d="M61.466,129.927L588.19,129.927" style="fill:none;fill-rule:nonzero;stroke:black;stroke-opacity:0.1;stroke-width:0.5px;"/>
    <path d="M61.466,75.745L588.19,75.745" style="fill:none;fill-rule:nonzero;stroke:black;stroke-opacity:0.1;stroke-width:0.5px;"/>
    <path d="M61.466,21.564L588.19,21.564" style="fill:none;fill-rule:nonzero;stroke:black;stroke-opacity:0.1;stroke-width:0.5px;"/>
    <path d="M61.466,356.405L61.466,11.811" style="fill:none;fill-rule:nonzero;stroke:black;stroke-width:1px;"/>
    <path d="M61.466,346.652L67.786,346.652" style="fill:none;fill-rule:nonzero;stroke:black;stroke-width:1px;"/>
    <path d="M61.466,292.47L67.786,292.47" style="fill:none;fill-rule:nonzero;stroke:black;stroke-width:1px;"/>
    <path d="M61.466,238.289L67.786,238.289" style="fill:none;fill-rule:nonzero;stroke:black;stroke-width:1px;"/>
    <path d="M61.466,184.108L67.786,184.108" style="fill:none;fill-rule:nonzero;stroke:black;stroke-width:1px;"/>
    <path d="M61.466,129.927L67.786,129.927" style="fill:none;fill-rule:nonzero;stroke:black;stroke-width:1px;"/>
    <path d="M61.466,75.745L67.786,75.745" style="fill:none;fill-rule:nonzero;stroke:black;stroke-width:1px;"/>
    <path d="M61.466,21.564L67.786,21.564" style="fill:none;fill-rule:nonzero;stroke:black;stroke-width:1px;"/>
    <g transform="matrix(1,0,0,1,28.212,352.585)">
        <text x="0px" y="0px" style="font-family:'ArialMT', 'Arial', sans-serif;font-size:12px;">10</text>
    </g>
    <g transform="matrix(1,0,0,1,41.5932,345.733)">
        <text x="0px" y="0px" style="font-family:'ArialMT', 'Arial', sans-serif;font-size:9.5px;">−2</text>
    </g>
    <g transform="matrix(1,0,0,1,33.6482,298.402)">
        <text x="0px" y="0px" style="font-family:'ArialMT', 'Arial', sans-serif;font-size:12px;">10</text>
    </g>
    <g transform="matrix(1,0,0,1,47.0292,291.55)">
        <text x="0px" y="0px" style="font-family:'ArialMT', 'Arial', sans-serif;font-size:9.5px;">0</text>
    </g>
    <g transform="matrix(1,0,0,1,33.6482,244.221)">
        <text x="0px" y="0px" style="font-family:'ArialMT', 'Arial', sans-serif;font-size:12px;">10</text>
    </g>
    <g transform="matrix(1,0,0,1,47.0292,237.369)">
        <text x="0px" y="0px" style="font-family:'ArialMT', 'Arial', sans-serif;font-size:9.5px;">2</text>
    </g>
    <g transform="matrix(1,0,0,1,33.6482,190.04)">
        <text x="0px" y="0px" style="font-family:'ArialMT', 'Arial', sans-serif;font-size:12px;">10</text>
    </g>
    <g transform="matrix(1,0,0,1,47.0292,183.187)">
        <text x="0px" y="0px" style="font-family:'ArialMT', 'Arial', sans-serif;font-size:9.5px;">4</text>
    </g>
    <g transform="matrix(1,0,0,1,33.6482,135.858)">
        <text x="0px" y="0px" style="font-family:'ArialMT', 'Arial', sans-serif;font-size:12px;">10</text>
    </g>
    <g transform="matrix(1,0,0,1,47.0292,129.006)">
        <text x="0px" y="0px" style="font-family:'ArialMT', 'Arial', sans-serif;font-size:9.5px;">6</text>
    </g>
    <g transform="matrix(1,0,0,1,33.6482,81.677)">
        <text x="0px" y="0px" style="font-family:'ArialMT', 'Arial', sans-serif;font-size:12px;">10</text>
    </g>
    <g transform="matrix(1,0,0,1,47.0292,74.8243)">
        <text x="0px" y="0px" style="font-family:'ArialMT', 'Arial', sans-serif;font-size:9.5px;">8</text>
    </g>
    <g transform="matrix(1,0,0,1,28.212,27.4955)">
        <text x="0px" y="0px" style="font-family:'ArialMT', 'Arial', sans-serif;font-size:12px;">10</text>
    </g>
    <g transform="matrix(1,0,0,1,41.5932,20.643)">
        <text x="0px" y="0px" style="font-family:'ArialMT', 'Arial', sans-serif;font-size:9.5px;">10</text>
    </g>
    <g transform="matrix(-3.82857e-16,-1,1,-3.82857e-16,16.3215,184.108)">
        <text x="-78.415px" y="0px" style="font-family:'ArialMT', 'Arial', sans-serif;font-size:16.5px;">number of new cases</text>
    </g>
    <path d="M76.373,292.47L77.615,292.603L78.857,292.733L80.1,292.865L81.342,292.995L82.584,293.128L83.826,293.258L85.069,293.39L86.311,293.52L87.553,293.652L88.796,293.783L90.038,293.915L91.28,294.045L92.522,294.178L93.765,294.308L95.007,294.44L96.249,294.57L97.491,294.703L98.734,294.833L99.976,294.965L101.218,295.095L102.461,295.228L103.703,295.358L104.945,295.49L106.187,295.62L107.43,295.753L108.672,295.883L109.914,296.015L111.156,296.145L112.399,296.277L113.641,296.408L114.883,296.54L116.126,296.67L117.368,296.803L118.61,296.933L121.095,297.198L122.337,297.328L123.579,297.46L124.821,297.59L126.064,297.723L127.306,297.853L128.548,297.985L129.791,298.115L131.033,298.248L132.275,298.378L133.517,298.51L134.76,298.64L136.002,298.773L137.244,298.902L138.486,299.035L139.729,299.165L140.971,299.298L142.213,299.428L143.456,299.56L144.698,299.69L145.94,299.823L147.182,299.953L148.425,300.085L149.667,300.215L150.909,300.348L152.151,300.478L153.394,300.61L154.636,300.74L155.878,300.873L157.121,301.003L158.363,301.135L159.605,301.265L160.847,301.398L162.089,301.527L163.332,301.66L164.574,301.79L165.816,301.923L167.059,302.053L168.301,302.185L169.543,302.315L170.786,302.448L172.028,302.578L173.27,302.71L174.512,302.84L175.755,302.973L176.997,303.103L178.239,303.235L179.481,303.365L180.724,303.498L181.966,303.628L183.208,303.76L184.451,303.89L185.693,304.023L186.935,304.152L188.177,304.285L189.42,304.415L190.662,304.548L191.904,304.678L193.146,304.81L194.389,304.94L195.631,305.073L196.873,305.203L198.116,305.335L199.358,305.465L200.6,305.598L201.842,305.728L203.085,305.86L204.327,305.99L206.811,306.255L208.054,306.385L209.296,306.518L210.538,306.648L211.78,306.78L213.023,306.91L214.265,307.043L215.507,307.173L216.75,307.305L217.992,307.435L219.234,307.568L220.476,307.698L221.719,307.83L222.961,307.96L224.203,308.092L225.446,308.223L226.688,308.355L227.93,308.485L229.172,308.618L230.415,308.748L231.657,308.88L232.899,309.01L234.141,309.143L235.384,309.273L236.626,309.405L237.868,309.535L239.111,309.668L240.353,309.798L241.595,309.93L242.837,310.06L244.08,310.193L245.322,310.323L246.564,310.455L247.806,310.585L249.048,310.717L250.29,310.848L251.533,310.98L252.775,311.11L254.018,311.243L255.26,311.373L256.503,311.505L257.745,311.635L258.988,311.768L260.23,311.898L261.473,312.03L262.713,312.16L263.955,312.293L265.198,312.423L266.44,312.555L267.683,312.685L268.925,312.818L270.168,312.948L271.41,313.08L272.652,313.21L273.895,313.342L275.138,313.473L276.378,313.605L277.62,313.735L278.863,313.868L280.105,313.998L281.348,314.13L282.59,314.26L283.833,314.393L285.075,314.523L286.318,314.655L287.56,314.785L288.803,314.918L290.043,315.048L291.285,315.18L292.527,315.31L295.013,315.575L296.255,315.705L297.498,315.837L298.74,315.967L299.983,316.1L301.225,316.23L302.467,316.363L303.708,316.493L304.95,316.625L306.193,316.755L307.435,316.888L308.678,317.018L309.92,317.15L311.163,317.28L312.405,317.413L313.648,317.543L314.89,317.675L316.133,317.805L317.373,317.938L318.615,318.068L319.858,318.2L321.1,318.33L322.342,318.462L323.585,318.592L324.828,318.725L326.07,318.855L327.313,318.988L328.555,319.118L329.798,319.25L331.038,319.38L332.28,319.513L333.523,319.643L334.765,319.775L336.008,319.905L337.25,320.038L338.493,320.168L339.735,320.3L340.978,320.43L342.22,320.563L343.462,320.693L344.703,320.825L345.945,320.955L347.188,321.087L348.43,321.217L349.673,321.35L350.915,321.48L352.158,321.613L353.4,321.743L354.643,321.875L355.885,322.005L357.128,322.138L358.368,322.268L359.61,322.4L360.853,322.53L362.095,322.663L363.337,322.793L364.58,322.925L365.823,323.055L367.065,323.188L368.308,323.318L369.55,323.45L370.793,323.58L372.033,323.712L373.275,323.842L374.518,323.975L375.76,324.105L377.003,324.238L378.245,324.368L380.73,324.633L381.973,324.763L383.215,324.895L384.458,325.025L385.698,325.158L386.94,325.288L388.183,325.42L389.425,325.55L390.668,325.683L391.91,325.813L393.152,325.945L394.395,326.075L395.638,326.208L396.88,326.337L398.123,326.47L399.363,326.6L400.605,326.733L401.848,326.863L403.09,326.995L404.333,327.125L405.575,327.258L406.818,327.388L408.06,327.52L409.303,327.65L410.545,327.783L411.788,327.913L413.027,328.045L414.27,328.175L415.513,328.308L416.755,328.438L417.998,328.57L419.24,328.7L420.483,328.833L421.725,328.962L422.967,329.095L424.21,329.225L425.453,329.358L426.693,329.488L427.935,329.62L429.178,329.75L430.42,329.883L431.663,330.013L432.905,330.145L434.147,330.275L435.39,330.408L436.633,330.538L437.875,330.67L439.118,330.8L440.358,330.933L441.6,331.063L442.842,331.195L444.085,331.325L445.328,331.458L446.57,331.587L447.813,331.72L449.055,331.85L450.298,331.983L451.54,332.113L452.783,332.245L454.022,332.375L455.265,332.508L456.508,332.638L457.75,332.77L458.993,332.9L460.235,333.033L461.478,333.163L462.72,333.295L463.962,333.425L466.448,333.69L467.688,333.82L468.93,333.953L470.173,334.083L471.415,334.215L472.658,334.345L473.9,334.478L475.143,334.608L476.385,334.74L477.628,334.87L478.87,335.003L480.113,335.133L481.353,335.265L482.595,335.395L483.837,335.527L485.08,335.658L486.323,335.79L487.565,335.92L488.808,336.053L490.05,336.183L491.293,336.315L492.535,336.445L493.777,336.578L495.018,336.708L496.26,336.84L497.503,336.97L498.745,337.103L499.988,337.233L501.23,337.365L502.473,337.495L503.715,337.628L504.958,337.758L506.2,337.89L507.443,338.02L508.683,338.152L509.925,338.283L511.168,338.415L512.41,338.545L513.653,338.678L514.895,338.808L516.138,338.94L517.38,339.07L518.622,339.203L519.865,339.333L521.107,339.465L522.347,339.595L523.59,339.728L524.833,339.858L526.075,339.99L527.318,340.12L528.56,340.253L529.803,340.383L531.045,340.515L532.288,340.645L533.53,340.777L534.773,340.908L536.013,341.04L537.255,341.17L538.497,341.303L539.74,341.433L540.983,341.565L542.225,341.695L543.468,341.828L544.71,341.958L545.953,342.09L547.195,342.22L548.438,342.353L549.678,342.483L552.163,342.748L553.405,342.878L554.648,343.01L555.89,343.14L557.133,343.273L558.375,343.402L559.617,343.535L560.86,343.665L562.103,343.798L563.343,343.928L564.585,344.06L565.828,344.19L567.07,344.323L568.313,344.453L569.555,344.585L570.798,344.715L572.04,344.848L573.283,344.978" style="fill:none;fill-rule:nonzero;stroke:rgb(0,75,249);stroke-width:2px;"/>
    <path d="M76.373,292.47L573.283,292.47" style="fill:none;fill-rule:nonzero;stroke:rgb(111,111,111);stroke-width:2px;"/>
    <path d="M76.373,292.47L77.615,292.34L78.857,292.208L80.1,292.078L81.342,291.945L82.584,291.815L83.826,291.683L85.069,291.553L86.311,291.42L87.553,291.29L88.796,291.158L90.038,291.027L91.28,290.895L92.522,290.765L93.765,290.633L95.007,290.503L96.249,290.37L97.491,290.24L98.734,290.108L99.976,289.978L101.218,289.845L102.461,289.715L103.703,289.583L104.945,289.453L106.187,289.32L107.43,289.19L108.672,289.058L109.914,288.928L111.156,288.795L112.399,288.665L113.641,288.533L114.883,288.402L116.126,288.27L117.368,288.14L119.852,287.875L121.095,287.745L122.337,287.613L123.579,287.483L124.821,287.35L126.064,287.22L127.306,287.088L128.548,286.958L129.791,286.825L131.033,286.695L132.275,286.563L133.517,286.433L134.76,286.3L136.002,286.17L137.244,286.038L138.486,285.908L139.729,285.775L140.971,285.645L142.213,285.513L143.456,285.383L144.698,285.25L145.94,285.12L147.182,284.988L148.425,284.858L149.667,284.725L150.909,284.595L152.151,284.463L153.394,284.333L154.636,284.2L155.878,284.07L157.121,283.938L158.363,283.808L159.605,283.675L160.847,283.545L162.089,283.413L163.332,283.283L164.574,283.15L165.816,283.02L167.059,282.888L168.301,282.758L169.543,282.625L170.786,282.495L172.028,282.363L173.27,282.233L174.512,282.1L175.755,281.97L176.997,281.838L178.239,281.708L179.481,281.575L180.724,281.445L181.966,281.313L183.208,281.183L184.451,281.05L185.693,280.92L186.935,280.788L188.177,280.658L189.42,280.525L190.662,280.395L191.904,280.263L193.146,280.133L194.389,280L195.631,279.87L196.873,279.738L198.116,279.608L199.358,279.475L200.6,279.345L201.842,279.213L203.085,279.083L205.569,278.818L206.811,278.688L208.054,278.555L209.296,278.425L210.538,278.293L211.78,278.163L213.023,278.03L214.265,277.9L215.507,277.768L216.75,277.638L217.992,277.505L219.234,277.375L220.476,277.243L221.719,277.113L222.961,276.98L224.203,276.85L225.446,276.717L226.688,276.588L227.93,276.455L229.172,276.325L230.415,276.193L231.657,276.063L232.899,275.93L234.141,275.8L235.384,275.668L236.626,275.538L237.868,275.405L239.111,275.275L240.353,275.143L241.595,275.013L242.837,274.88L244.08,274.75L245.322,274.618L246.564,274.488L247.806,274.355L249.048,274.225L250.29,274.092L251.533,273.963L252.775,273.83L254.018,273.7L255.26,273.568L256.503,273.438L257.745,273.305L258.988,273.175L260.23,273.043L261.473,272.913L262.713,272.78L263.955,272.65L265.198,272.518L266.44,272.388L267.683,272.255L268.925,272.125L270.168,271.993L271.41,271.863L272.652,271.73L273.895,271.6L275.138,271.467L276.378,271.338L277.62,271.205L278.863,271.075L280.105,270.943L281.348,270.813L282.59,270.68L283.833,270.55L285.075,270.418L286.318,270.288L287.56,270.155L288.803,270.025L290.043,269.893L291.285,269.763L293.77,269.498L295.013,269.368L296.255,269.235L297.498,269.105L298.74,268.973L299.983,268.842L301.225,268.71L302.467,268.58L303.708,268.448L304.95,268.318L306.193,268.185L307.435,268.055L308.678,267.923L309.92,267.793L311.163,267.66L312.405,267.53L313.648,267.398L314.89,267.268L316.133,267.135L317.373,267.005L318.615,266.873L319.858,266.743L321.1,266.61L322.342,266.48L323.585,266.348L324.828,266.217L326.07,266.085L327.313,265.955L328.555,265.823L329.798,265.693L331.038,265.56L332.28,265.43L333.523,265.298L334.765,265.168L336.008,265.035L337.25,264.905L338.493,264.773L339.735,264.643L340.978,264.51L342.22,264.38L343.462,264.248L344.703,264.118L345.945,263.985L347.188,263.855L348.43,263.723L349.673,263.592L350.915,263.46L352.158,263.33L353.4,263.198L354.643,263.068L355.885,262.935L357.128,262.805L358.368,262.673L359.61,262.543L360.853,262.41L362.095,262.28L363.337,262.148L364.58,262.017L365.823,261.885L367.065,261.755L368.308,261.623L369.55,261.493L370.793,261.36L372.033,261.23L373.275,261.098L374.518,260.967L375.76,260.835L377.003,260.705L379.488,260.44L380.73,260.31L381.973,260.178L383.215,260.048L384.458,259.915L385.698,259.785L386.94,259.652L388.183,259.522L389.425,259.39L390.668,259.26L391.91,259.128L393.152,258.998L394.395,258.865L395.638,258.735L396.88,258.603L398.123,258.473L399.363,258.34L400.605,258.21L401.848,258.077L403.09,257.948L404.333,257.815L405.575,257.685L406.818,257.553L408.06,257.423L409.303,257.29L410.545,257.16L411.788,257.027L413.027,256.897L414.27,256.765L415.513,256.635L416.755,256.503L417.998,256.373L419.24,256.24L420.483,256.11L421.725,255.978L422.967,255.848L424.21,255.715L425.453,255.585L426.693,255.452L427.935,255.323L429.178,255.19L430.42,255.06L431.663,254.928L432.905,254.798L434.147,254.665L435.39,254.535L436.633,254.403L437.875,254.273L439.118,254.14L440.358,254.01L441.6,253.878L442.842,253.748L444.085,253.615L445.328,253.485L446.57,253.353L447.813,253.223L449.055,253.09L450.298,252.96L451.54,252.827L452.783,252.698L454.022,252.565L455.265,252.435L456.508,252.303L457.75,252.173L458.993,252.04L460.235,251.91L461.478,251.778L462.72,251.648L465.205,251.383L466.448,251.253L467.688,251.12L468.93,250.99L470.173,250.857L471.415,250.728L472.658,250.595L473.9,250.465L475.143,250.333L476.385,250.202L477.628,250.07L478.87,249.94L480.113,249.809L481.353,249.677L490.05,248.759L491.293,248.627L493.777,248.365L495.018,248.233L507.443,246.921L508.683,246.789L521.107,245.477L522.347,245.345L524.833,245.083L526.075,244.952L534.773,244.033L536.013,243.902L540.983,243.377L542.225,243.245L548.438,242.589L549.678,242.458L558.375,241.539L559.617,241.407L562.103,241.145L563.343,241.014L573.283,239.964" style="fill:none;fill-rule:nonzero;stroke:rgb(243,137,32);stroke-width:2px;"/>
    <path d="M76.373,292.47L85.069,289.618L86.311,289.208L97.491,285.54L98.734,285.13L99.976,284.723L108.672,281.87L109.914,281.46L112.399,280.645L113.641,280.238L121.095,277.793L122.337,277.383L127.306,275.753L128.548,275.345L133.517,273.715L134.76,273.305L140.971,271.268L142.213,270.86L145.94,269.638L147.182,269.228L154.636,266.783L155.878,266.375L157.121,265.967L158.363,265.558L168.301,262.298L169.543,261.89L170.786,261.48L181.966,257.813L183.208,257.402L194.389,253.735L195.631,253.325L196.873,252.917L205.569,250.065L206.811,249.656L209.296,248.841L210.538,248.433L222.961,244.356L224.203,243.948L236.626,239.87L237.868,239.463L240.353,238.647L241.595,238.239L249.048,235.792L250.29,235.385L261.473,231.715L262.713,231.307L275.138,227.23L276.378,226.822L288.803,222.744L290.043,222.337L296.255,220.298L297.498,219.89L302.467,218.259L303.708,217.851L316.133,213.774L317.373,213.366L329.798,209.289L331.038,208.881L343.462,204.803L344.703,204.396L352.158,201.949L353.4,201.541L357.128,200.318L358.368,199.91L370.793,195.833L372.033,195.425L384.458,191.347L385.698,190.94L398.123,186.862L399.363,186.454L408.06,183.6L409.303,183.192L411.788,182.377L413.027,181.969L425.453,177.891L426.693,177.484L439.118,173.406L440.358,172.998L452.783,168.921L454.022,168.513L463.962,165.251L465.205,164.843L466.448,164.435L467.688,164.028L480.113,159.95L481.353,159.542L493.777,155.465L495.018,155.057L507.443,150.98L508.683,150.572L518.622,147.31L519.865,146.902L521.107,146.494L522.347,146.086L534.773,142.009L536.013,141.601L548.438,137.524L549.678,137.116L562.103,133.038L563.343,132.631L573.283,129.369" style="fill:none;fill-rule:nonzero;stroke:rgb(245,84,0);stroke-width:2px;"/>
    <path d="M76.373,292.47L77.615,291.825L78.857,291.178L80.1,290.533L81.342,289.885L82.584,289.24L83.826,288.592L85.069,287.948L86.311,287.3L87.553,286.655L88.796,286.008L90.038,285.363L91.28,284.715L92.522,284.07L93.765,283.423L95.007,282.777L96.249,282.13L97.491,281.485L98.734,280.838L99.976,280.193L101.218,279.545L102.461,278.9L104.945,277.605L106.187,276.96L107.43,276.313L108.672,275.668L109.914,275.02L111.156,274.375L112.399,273.728L113.641,273.083L114.883,272.435L116.126,271.79L117.368,271.143L118.61,270.498L119.852,269.85L121.095,269.205L122.337,268.558L123.579,267.913L124.821,267.265L126.064,266.62L127.306,265.973L128.548,265.328L129.791,264.68L131.033,264.035L132.275,263.388L133.517,262.743L134.76,262.095L136.002,261.45L137.244,260.803L138.486,260.158L139.729,259.51L140.971,258.865L142.213,258.217L143.456,257.573L144.698,256.925L145.94,256.28L147.182,255.633L148.425,254.988L149.667,254.34L150.909,253.695L152.151,253.048L153.394,252.403L154.636,251.755L155.878,251.11L157.121,250.463L165.816,245.939L167.059,245.292L168.301,244.646L169.543,244L178.239,239.476L179.481,238.83L181.966,237.537L183.208,236.891L189.42,233.66L190.662,233.013L195.631,230.428L196.873,229.782L200.6,227.843L201.842,227.196L209.296,223.319L210.538,222.673L211.78,222.027L213.023,221.38L222.961,216.21L224.203,215.564L234.141,210.393L235.384,209.747L236.626,209.101L237.868,208.455L246.564,203.931L247.806,203.284L249.048,202.638L250.29,201.992L257.745,198.114L258.988,197.468L261.473,196.175L262.713,195.529L268.925,192.298L270.168,191.651L275.138,189.066L276.378,188.42L280.105,186.481L281.348,185.835L288.803,181.957L290.043,181.311L291.285,180.665L292.527,180.018L302.467,174.848L303.708,174.202L313.648,169.032L314.89,168.385L316.133,167.739L317.373,167.093L326.07,162.569L327.313,161.923L329.798,160.63L331.038,159.984L337.25,156.753L338.493,156.106L343.462,153.521L344.703,152.875L348.43,150.936L349.673,150.29L357.128,146.412L358.368,145.766L359.61,145.119L360.853,144.473L370.793,139.303L372.033,138.657L381.973,133.487L383.215,132.84L384.458,132.194L385.698,131.548L394.395,127.024L395.638,126.377L398.123,125.085L399.363,124.439L405.575,121.207L406.818,120.561L411.788,117.976L413.027,117.33L416.755,115.391L417.998,114.744L425.453,110.867L426.693,110.221L427.935,109.574L429.178,108.928L439.118,103.758L440.358,103.111L450.298,97.941L451.54,97.295L452.783,96.649L454.022,96.002L462.72,91.479L463.962,90.832L466.448,89.54L467.688,88.893L473.9,85.662L475.143,85.016L480.113,82.431L481.353,81.784L485.08,79.846L486.323,79.199L493.777,75.322L495.018,74.675L496.26,74.029L497.503,73.382L507.443,68.213L508.683,67.566L518.622,62.396L519.865,61.749L521.107,61.103L522.347,60.457L529.803,56.58L531.045,55.933L534.773,53.994L536.013,53.348L542.225,50.117L543.468,49.47L548.438,46.885L549.678,46.239L553.405,44.3L554.648,43.654L562.103,39.776L563.343,39.13L564.585,38.484L565.828,37.837L573.283,33.96" style="fill:none;fill-rule:nonzero;stroke:rgb(190,37,13);stroke-width:2px;"/>
</svg>
